<svg width="50" height="50" viewBox="0 0 50 50" fill="none" xmlns="http://www.w3.org/2000/svg">
<g clip-path="url(#clip0_416_73)">
<path d="M25 50C38.8071 50 50 38.8071 50 25C50 11.1929 38.8071 0 25 0C11.1929 0 0 11.1929 0 25C0 38.8071 11.1929 50 25 50Z" fill="#F0F0F0"/>
<path d="M33.1198 18.4782H29.8489C29.876 18.8377 29.8913 19.2004 29.8913 19.5652C29.8913 21.9835 29.2868 24.3276 28.233 25.9961C27.9079 26.5108 27.3616 27.2375 26.6304 27.7278V18.4781H23.3695V27.7278C22.6384 27.2375 22.092 26.5109 21.7669 25.9961C20.713 24.3276 20.1086 21.9835 20.1086 19.5652C20.1086 19.2004 20.124 18.8376 20.151 18.4782H16.8801C16.8591 18.836 16.8477 19.1983 16.8477 19.5652C16.8477 26.2698 20.4285 31.5217 24.9998 31.5217C29.5711 31.5217 33.152 26.2698 33.152 19.5652C33.1522 19.1983 33.1407 18.836 33.1198 18.4782V18.4782Z" fill="#D80027"/>
<path d="M10.3261 11.9565H13.587V14.1305H16.8478V11.9565H20.1086V14.1305H23.3695V11.9565H26.6303V14.1305H29.8912V11.9565H33.152V14.1305H36.4128V11.9565H39.6737V14.1305H47.5191C43.4756 5.76807 34.9115 0 25 0C15.0886 0 6.52446 5.76807 2.48071 14.1305H10.3261V11.9565Z" fill="#6DA544"/>
<path d="M39.674 35.8695V38.0434H36.4131V35.8695H33.1523V38.0434H29.8915V35.8695H26.6306V38.0434H23.3698V35.8695H20.1089V38.0434H16.8481V35.8695H13.587V38.0434H10.3261V35.8695H2.48071C6.52446 44.2319 15.0885 50 25 50C34.9116 50 43.4756 44.2319 47.5194 35.8695H39.674Z" fill="#D80027"/>
</g>
<defs>
<clipPath id="clip0_416_73">
<rect width="50" height="50" fill="white"/>
</clipPath>
</defs>
</svg>
