<svg width="50" height="51" viewBox="0 0 50 51" fill="none" xmlns="http://www.w3.org/2000/svg">
<g clip-path="url(#clip0_416_296)">
<path d="M25 50.8181C38.8071 50.8181 50 39.6252 50 25.8181C50 12.011 38.8071 0.818115 25 0.818115C11.1929 0.818115 0 12.011 0 25.8181C0 39.6252 11.1929 50.8181 25 50.8181Z" fill="#F0F0F0"/>
<path d="M50 25.8181C50 39.6251 38.807 50.8181 25 50.8181C11.193 50.8181 0 39.6251 0 25.8181" fill="#496E2D"/>
<path d="M43.2631 18.2149C42.3691 15.6795 39.9533 13.8617 37.112 13.8617H31.5218C27.9199 13.8617 25 16.7816 25 20.3835C25 21.5602 25.3133 22.6912 25.8585 23.6443C23.7826 23.6273 21.8614 23.6587 20.6522 23.6443C20.6522 21.1291 20.6522 17.925 20.6522 17.2546L20.909 16.9977C22.0619 15.8448 21.6775 13.9233 21.6775 13.9233C21.6775 13.9233 19.7562 13.539 18.6032 14.692L17.2596 16.0356H15.7609C12.4591 16.0356 9.78263 18.7122 9.78263 22.0138H14.1305V26.9052C14.1305 27.6206 14.2747 28.3021 14.5354 28.9228L13.0435 30.166H10.8695V27.9921H8.69562V32.3399H18.4782V36.6878H16.3043V38.8617H20.6522V34.5138L22.6448 32.1225H27.3551L29.3478 34.5138V36.6878H27.1738V38.8617H35.8694V26.9051C35.8694 25.1042 37.3294 23.6442 39.1303 23.6442C39.1766 23.6442 39.2225 23.6459 39.2684 23.6477C39.1783 23.2993 39.1303 22.934 39.1303 22.5573C39.1305 20.2283 40.9618 18.3271 43.2631 18.2149V18.2149ZM31.5218 36.6877V32.1224H31.7029L33.6956 34.5137V36.6877H31.5218Z" fill="#D80027"/>
</g>
<defs>
<clipPath id="clip0_416_296">
<rect width="50" height="50" fill="white" transform="translate(0 0.818115)"/>
</clipPath>
</defs>
</svg>
