<svg width="72" height="72" viewBox="0 0 72 72" fill="none" xmlns="http://www.w3.org/2000/svg">
<g clip-path="url(#clip0_402_487)">
<path d="M36.0312 71.2443C55.4475 71.2443 71.1875 55.5043 71.1875 36.0881C71.1875 16.6718 55.4475 0.931824 36.0312 0.931824C16.615 0.931824 0.875 16.6718 0.875 36.0881C0.875 55.5043 16.615 71.2443 36.0312 71.2443Z" fill="#6DA544"/>
<path d="M36.0313 14.6886L65.0734 36.088L36.0313 57.4875L6.98926 36.088L36.0313 14.6886Z" fill="#FFDA44"/>
<path d="M36.0313 48.3163C42.7847 48.3163 48.2595 42.8415 48.2595 36.0881C48.2595 29.3346 42.7847 23.8599 36.0313 23.8599C29.2779 23.8599 23.8031 29.3346 23.8031 36.0881C23.8031 42.8415 29.2779 48.3163 36.0313 48.3163Z" fill="#F0F0F0"/>
<path d="M29.9171 35.3239C27.7907 35.3239 25.7386 35.6473 23.8069 36.2474C23.8924 42.9271 29.3312 48.3164 36.0312 48.3164C40.1742 48.3164 43.8332 46.2542 46.0451 43.1023C42.2608 38.3649 36.4379 35.3239 29.9171 35.3239V35.3239Z" fill="#0052B4"/>
<path d="M48.0329 38.4309C48.1801 37.6723 48.2596 36.8896 48.2596 36.0881C48.2596 29.3345 42.7848 23.8599 36.0314 23.8599C30.9922 23.8599 26.6664 26.9087 24.7943 31.2618C26.4491 30.9189 28.1624 30.7383 29.9174 30.7383C37.0196 30.7381 43.4447 33.6904 48.0329 38.4309V38.4309Z" fill="#0052B4"/>
</g>
<defs>
<clipPath id="clip0_402_487">
<rect width="70.3125" height="70.3125" fill="white" transform="translate(0.875 0.931824)"/>
</clipPath>
</defs>
</svg>
