<svg width="50" height="50" viewBox="0 0 50 50" fill="none" xmlns="http://www.w3.org/2000/svg">
<g clip-path="url(#clip0_416_73)">
<path d="M25 50C38.8071 50 50 38.8071 50 25C50 11.1929 38.8071 0 25 0C11.1929 0 0 11.1929 0 25C0 38.8071 11.1929 50 25 50Z" fill="#F0F0F0"/>
<path d="M15.2174 16.3044H48.4449C44.9127 6.78437 35.749 0 25 0C18.0963 0 11.8469 2.79873 7.32312 7.32314L15.2174 16.3044Z" fill="#6DA544"/>
<path d="M15.2174 33.6956H48.4449C44.9127 43.2156 35.749 50 25 50C18.0963 50 11.8469 47.2013 7.32312 42.6769L15.2174 33.6956Z" fill="#D80027"/>
<path d="M7.32231 7.32227C-2.44077 17.0854 -2.44077 32.9146 7.32231 42.6777C11.3568 38.6433 15.237 34.7631 25 25L7.32231 7.32227Z" fill="#0052B4"/>
<path d="M29.3479 20.6522V26.0869C29.3479 29.4151 33.6958 30.4349 33.6958 30.4349C33.6958 30.4349 38.0436 29.4151 38.0436 26.0869V20.6522H29.3479Z" fill="#DEDDE0"/>
<path d="M32.6086 25.1087H34.7826V28.2609H32.6086V25.1087Z" fill="#786145"/>
<path d="M35.8696 23.9131C35.8696 22.7124 34.8963 21.7391 33.6957 21.7391C32.495 21.7391 31.5217 22.7124 31.5217 23.9131C30.9214 23.9131 30.4348 24.3997 30.4348 25C30.4348 25.6003 30.9214 26.0869 31.5217 26.0869H35.8696C36.4699 26.0869 36.9565 25.6003 36.9565 25C36.9565 24.3997 36.47 23.9131 35.8696 23.9131V23.9131Z" fill="#6DA544"/>
</g>
<defs>
<clipPath id="clip0_416_73">
<rect width="50" height="50" fill="white"/>
</clipPath>
</defs>
</svg>
