<svg width="50" height="51" viewBox="0 0 50 51" fill="none" xmlns="http://www.w3.org/2000/svg">
<g clip-path="url(#clip0_416_326)">
<path d="M25 50.8181C38.8071 50.8181 50 39.6252 50 25.8181C50 12.011 38.8071 0.818115 25 0.818115C11.1929 0.818115 0 12.011 0 25.8181C0 39.6252 11.1929 50.8181 25 50.8181Z" fill="#F0F0F0"/>
<path d="M49.7884 22.5573H28.261H28.2609V1.02974C27.1935 0.890771 26.1052 0.818115 25 0.818115C23.8948 0.818115 22.8065 0.890771 21.7392 1.02974V22.5571V22.5572H0.211621C0.0726563 23.6247 0 24.7127 0 25.8181C0 26.9235 0.0726563 28.0116 0.211621 29.079H21.739H21.7391V50.6065C22.8065 50.7455 23.8948 50.8181 25 50.8181C26.1052 50.8181 27.1935 50.7456 28.2608 50.6065V29.0792V29.0791H49.7884C49.9273 28.0116 50 26.9235 50 25.8181C50 24.7127 49.9273 23.6247 49.7884 22.5573V22.5573Z" fill="#D80027"/>
</g>
<defs>
<clipPath id="clip0_416_326">
<rect width="50" height="50" fill="white" transform="translate(0 0.818115)"/>
</clipPath>
</defs>
</svg>
