<svg width="50" height="51" viewBox="0 0 50 51" fill="none" xmlns="http://www.w3.org/2000/svg">
<g clip-path="url(#clip0_416_326)">
<path d="M25 50.8181C38.8071 50.8181 50 39.6252 50 25.8181C50 12.011 38.8071 0.818115 25 0.818115C11.1929 0.818115 0 12.011 0 25.8181C0 39.6252 11.1929 50.8181 25 50.8181Z" fill="#F0F0F0"/>
<path d="M25 0.818115C14.2509 0.818115 5.08732 7.60249 1.55499 17.1225H48.4451C44.9127 7.60249 35.7491 0.818115 25 0.818115V0.818115Z" fill="#A2001D"/>
<path d="M25 50.8181C35.7491 50.8181 44.9127 44.0337 48.445 34.5137H1.55499C5.08732 44.0337 14.2509 50.8181 25 50.8181Z" fill="#0052B4"/>
</g>
<defs>
<clipPath id="clip0_416_326">
<rect width="50" height="50" fill="white" transform="translate(0 0.818115)"/>
</clipPath>
</defs>
</svg>
